<mxfile host="Electron" agent="Mozilla/5.0 (X11; Linux x86_64) AppleWebKit/537.36 (KHTML, like Gecko) draw.io/24.7.17 Chrome/128.0.6613.36 Electron/32.0.1 Safari/537.36" version="24.7.17">
  <diagram name="Seite-1" id="LwlvuXzKO_krSduqySCl">
    <mxGraphModel dx="2555" dy="1129" grid="1" gridSize="10" guides="1" tooltips="1" connect="1" arrows="1" fold="1" page="1" pageScale="1" pageWidth="827" pageHeight="1169" math="0" shadow="0">
      <root>
        <mxCell id="0" />
        <mxCell id="1" parent="0" />
        <mxCell id="boKA3PJuCKov7tFb9bbx-47" value="" style="rounded=0;whiteSpace=wrap;html=1;" parent="1" vertex="1">
          <mxGeometry x="-340" y="20" width="1080" height="480" as="geometry" />
        </mxCell>
        <mxCell id="boKA3PJuCKov7tFb9bbx-1" value="" style="rounded=0;whiteSpace=wrap;html=1;fillColor=#f5f5f5;fontColor=#333333;strokeColor=#666666;" parent="1" vertex="1">
          <mxGeometry x="200" y="240" width="160" height="80" as="geometry" />
        </mxCell>
        <mxCell id="boKA3PJuCKov7tFb9bbx-8" value="" style="endArrow=none;html=1;rounded=0;" parent="1" edge="1">
          <mxGeometry width="50" height="50" relative="1" as="geometry">
            <mxPoint x="240" y="259.8" as="sourcePoint" />
            <mxPoint x="320" y="259.8" as="targetPoint" />
          </mxGeometry>
        </mxCell>
        <mxCell id="boKA3PJuCKov7tFb9bbx-9" value="" style="endArrow=none;html=1;rounded=0;" parent="1" edge="1">
          <mxGeometry width="50" height="50" relative="1" as="geometry">
            <mxPoint x="240" y="299.8" as="sourcePoint" />
            <mxPoint x="320" y="299.8" as="targetPoint" />
          </mxGeometry>
        </mxCell>
        <mxCell id="boKA3PJuCKov7tFb9bbx-10" value="" style="endArrow=none;html=1;rounded=0;" parent="1" edge="1">
          <mxGeometry width="50" height="50" relative="1" as="geometry">
            <mxPoint x="260" y="299.8" as="sourcePoint" />
            <mxPoint x="260" y="259.8" as="targetPoint" />
          </mxGeometry>
        </mxCell>
        <mxCell id="boKA3PJuCKov7tFb9bbx-11" value="" style="endArrow=none;html=1;rounded=0;" parent="1" edge="1">
          <mxGeometry width="50" height="50" relative="1" as="geometry">
            <mxPoint x="270" y="299.8" as="sourcePoint" />
            <mxPoint x="270" y="259.8" as="targetPoint" />
          </mxGeometry>
        </mxCell>
        <mxCell id="boKA3PJuCKov7tFb9bbx-12" value="" style="endArrow=none;html=1;rounded=0;" parent="1" edge="1">
          <mxGeometry width="50" height="50" relative="1" as="geometry">
            <mxPoint x="280" y="299.8" as="sourcePoint" />
            <mxPoint x="280" y="259.8" as="targetPoint" />
          </mxGeometry>
        </mxCell>
        <mxCell id="boKA3PJuCKov7tFb9bbx-13" value="" style="endArrow=none;html=1;rounded=0;" parent="1" edge="1">
          <mxGeometry width="50" height="50" relative="1" as="geometry">
            <mxPoint x="290" y="299.8" as="sourcePoint" />
            <mxPoint x="290" y="259.8" as="targetPoint" />
          </mxGeometry>
        </mxCell>
        <mxCell id="boKA3PJuCKov7tFb9bbx-14" value="" style="endArrow=none;html=1;rounded=0;" parent="1" edge="1">
          <mxGeometry width="50" height="50" relative="1" as="geometry">
            <mxPoint x="300" y="299.8" as="sourcePoint" />
            <mxPoint x="300" y="259.8" as="targetPoint" />
          </mxGeometry>
        </mxCell>
        <mxCell id="boKA3PJuCKov7tFb9bbx-15" value="" style="shape=flexArrow;endArrow=classic;html=1;rounded=0;width=7.3076923076923075;endSize=3.3980769230769234;endWidth=10.902366863905325;" parent="1" edge="1">
          <mxGeometry width="50" height="50" relative="1" as="geometry">
            <mxPoint x="350" y="279.8" as="sourcePoint" />
            <mxPoint x="310" y="279.8" as="targetPoint" />
          </mxGeometry>
        </mxCell>
        <mxCell id="boKA3PJuCKov7tFb9bbx-16" value="" style="shape=flexArrow;endArrow=classic;html=1;rounded=0;width=7.3076923076923075;endSize=3.3980769230769234;endWidth=10.902366863905325;" parent="1" edge="1">
          <mxGeometry width="50" height="50" relative="1" as="geometry">
            <mxPoint x="250" y="279.8" as="sourcePoint" />
            <mxPoint x="210" y="279.8" as="targetPoint" />
          </mxGeometry>
        </mxCell>
        <mxCell id="boKA3PJuCKov7tFb9bbx-17" value="FIFO&lt;br&gt;Input&amp;nbsp;&lt;br&gt;Control" style="rounded=0;whiteSpace=wrap;html=1;fillColor=#f5f5f5;fontColor=#333333;strokeColor=#666666;" parent="1" vertex="1">
          <mxGeometry x="440" y="160" width="120" height="80" as="geometry" />
        </mxCell>
        <mxCell id="boKA3PJuCKov7tFb9bbx-18" value="FIFO&lt;br&gt;Output&lt;br&gt;Control" style="rounded=0;whiteSpace=wrap;html=1;fillColor=#f5f5f5;fontColor=#333333;strokeColor=#666666;" parent="1" vertex="1">
          <mxGeometry y="160" width="120" height="80" as="geometry" />
        </mxCell>
        <mxCell id="boKA3PJuCKov7tFb9bbx-19" value="" style="endArrow=classic;startArrow=classic;html=1;rounded=0;entryX=0;entryY=0.25;entryDx=0;entryDy=0;" parent="1" target="boKA3PJuCKov7tFb9bbx-1" edge="1">
          <mxGeometry width="50" height="50" relative="1" as="geometry">
            <mxPoint x="120" y="200" as="sourcePoint" />
            <mxPoint x="170" y="150" as="targetPoint" />
            <Array as="points">
              <mxPoint x="160" y="200" />
              <mxPoint x="160" y="260" />
            </Array>
          </mxGeometry>
        </mxCell>
        <mxCell id="boKA3PJuCKov7tFb9bbx-20" value="" style="endArrow=classic;startArrow=classic;html=1;rounded=0;exitX=1;exitY=0.25;exitDx=0;exitDy=0;" parent="1" source="boKA3PJuCKov7tFb9bbx-1" edge="1">
          <mxGeometry width="50" height="50" relative="1" as="geometry">
            <mxPoint x="390" y="250" as="sourcePoint" />
            <mxPoint x="440" y="200" as="targetPoint" />
            <Array as="points">
              <mxPoint x="400" y="260" />
              <mxPoint x="400" y="200" />
            </Array>
          </mxGeometry>
        </mxCell>
        <mxCell id="boKA3PJuCKov7tFb9bbx-21" value="" style="endArrow=classic;html=1;rounded=0;entryX=1;entryY=0.5;entryDx=0;entryDy=0;exitX=-0.006;exitY=0.364;exitDx=0;exitDy=0;exitPerimeter=0;" parent="1" source="boKA3PJuCKov7tFb9bbx-22" target="boKA3PJuCKov7tFb9bbx-17" edge="1">
          <mxGeometry width="50" height="50" relative="1" as="geometry">
            <mxPoint x="640" y="200" as="sourcePoint" />
            <mxPoint x="710" y="210" as="targetPoint" />
          </mxGeometry>
        </mxCell>
        <mxCell id="boKA3PJuCKov7tFb9bbx-23" value="can_frame_valid" style="edgeLabel;html=1;align=center;verticalAlign=middle;resizable=0;points=[];" parent="boKA3PJuCKov7tFb9bbx-21" vertex="1" connectable="0">
          <mxGeometry x="-0.0036" relative="1" as="geometry">
            <mxPoint as="offset" />
          </mxGeometry>
        </mxCell>
        <mxCell id="boKA3PJuCKov7tFb9bbx-22" value="" style="rounded=0;whiteSpace=wrap;html=1;fillColor=#dae8fc;strokeColor=#6c8ebf;" parent="1" vertex="1">
          <mxGeometry x="680" y="40" width="40" height="440" as="geometry" />
        </mxCell>
        <mxCell id="boKA3PJuCKov7tFb9bbx-24" value="" style="endArrow=classic;html=1;rounded=0;entryX=1;entryY=0.75;entryDx=0;entryDy=0;exitX=-0.006;exitY=0.589;exitDx=0;exitDy=0;exitPerimeter=0;" parent="1" source="boKA3PJuCKov7tFb9bbx-22" target="boKA3PJuCKov7tFb9bbx-1" edge="1">
          <mxGeometry width="50" height="50" relative="1" as="geometry">
            <mxPoint x="430" y="300" as="sourcePoint" />
            <mxPoint x="380" y="300" as="targetPoint" />
          </mxGeometry>
        </mxCell>
        <mxCell id="boKA3PJuCKov7tFb9bbx-25" value="can_frame" style="edgeLabel;html=1;align=center;verticalAlign=middle;resizable=0;points=[];" parent="boKA3PJuCKov7tFb9bbx-24" vertex="1" connectable="0">
          <mxGeometry x="-0.0006" y="2" relative="1" as="geometry">
            <mxPoint x="80" y="-2" as="offset" />
          </mxGeometry>
        </mxCell>
        <mxCell id="boKA3PJuCKov7tFb9bbx-26" value="Buffer Usage" style="rounded=0;whiteSpace=wrap;html=1;fillColor=#f5f5f5;fontColor=#333333;strokeColor=#666666;" parent="1" vertex="1">
          <mxGeometry x="200" y="80" width="160" height="80" as="geometry" />
        </mxCell>
        <mxCell id="boKA3PJuCKov7tFb9bbx-27" value="" style="endArrow=classic;html=1;rounded=0;entryX=1;entryY=0.5;entryDx=0;entryDy=0;" parent="1" target="boKA3PJuCKov7tFb9bbx-26" edge="1">
          <mxGeometry width="50" height="50" relative="1" as="geometry">
            <mxPoint x="500" y="160" as="sourcePoint" />
            <mxPoint x="550" y="110" as="targetPoint" />
            <Array as="points">
              <mxPoint x="500" y="120" />
            </Array>
          </mxGeometry>
        </mxCell>
        <mxCell id="boKA3PJuCKov7tFb9bbx-28" value="" style="endArrow=classic;html=1;rounded=0;exitX=0.75;exitY=0;exitDx=0;exitDy=0;entryX=0;entryY=0.75;entryDx=0;entryDy=0;" parent="1" source="boKA3PJuCKov7tFb9bbx-18" target="boKA3PJuCKov7tFb9bbx-26" edge="1">
          <mxGeometry width="50" height="50" relative="1" as="geometry">
            <mxPoint x="80" y="150" as="sourcePoint" />
            <mxPoint x="130" y="100" as="targetPoint" />
            <Array as="points">
              <mxPoint x="90" y="140" />
            </Array>
          </mxGeometry>
        </mxCell>
        <mxCell id="boKA3PJuCKov7tFb9bbx-29" value="OLO&lt;br&gt;AXI4-Lite&lt;br&gt;Slave" style="rounded=0;whiteSpace=wrap;html=1;fillColor=#f5f5f5;fontColor=#333333;strokeColor=#666666;" parent="1" vertex="1">
          <mxGeometry x="-240" y="240" width="120" height="80" as="geometry" />
        </mxCell>
        <mxCell id="boKA3PJuCKov7tFb9bbx-33" value="" style="endArrow=classic;startArrow=classic;html=1;rounded=0;exitX=1;exitY=0.25;exitDx=0;exitDy=0;entryX=0;entryY=0.5;entryDx=0;entryDy=0;" parent="1" source="boKA3PJuCKov7tFb9bbx-29" target="boKA3PJuCKov7tFb9bbx-18" edge="1">
          <mxGeometry width="50" height="50" relative="1" as="geometry">
            <mxPoint x="-100" y="290" as="sourcePoint" />
            <mxPoint x="-50" y="240" as="targetPoint" />
            <Array as="points">
              <mxPoint x="-80" y="260" />
              <mxPoint x="-80" y="200" />
              <mxPoint x="-40" y="200" />
            </Array>
          </mxGeometry>
        </mxCell>
        <mxCell id="boKA3PJuCKov7tFb9bbx-34" value="" style="endArrow=classic;html=1;rounded=0;exitX=0;exitY=0.25;exitDx=0;exitDy=0;entryX=0.5;entryY=0;entryDx=0;entryDy=0;" parent="1" source="boKA3PJuCKov7tFb9bbx-26" target="boKA3PJuCKov7tFb9bbx-35" edge="1">
          <mxGeometry width="50" height="50" relative="1" as="geometry">
            <mxPoint x="20" y="130" as="sourcePoint" />
            <mxPoint x="70" y="80" as="targetPoint" />
            <Array as="points">
              <mxPoint x="-40" y="100" />
            </Array>
          </mxGeometry>
        </mxCell>
        <mxCell id="boKA3PJuCKov7tFb9bbx-39" value="buffer_usage" style="edgeLabel;html=1;align=center;verticalAlign=middle;resizable=0;points=[];" parent="boKA3PJuCKov7tFb9bbx-34" vertex="1" connectable="0">
          <mxGeometry x="-0.3746" y="-1" relative="1" as="geometry">
            <mxPoint as="offset" />
          </mxGeometry>
        </mxCell>
        <mxCell id="boKA3PJuCKov7tFb9bbx-35" value="+" style="ellipse;whiteSpace=wrap;html=1;aspect=fixed;" parent="1" vertex="1">
          <mxGeometry x="-60" y="280" width="40" height="40" as="geometry" />
        </mxCell>
        <mxCell id="boKA3PJuCKov7tFb9bbx-36" value="" style="endArrow=classic;html=1;rounded=0;entryX=1;entryY=0.75;entryDx=0;entryDy=0;exitX=0;exitY=0.5;exitDx=0;exitDy=0;" parent="1" source="boKA3PJuCKov7tFb9bbx-35" target="boKA3PJuCKov7tFb9bbx-29" edge="1">
          <mxGeometry width="50" height="50" relative="1" as="geometry">
            <mxPoint x="-40" y="390" as="sourcePoint" />
            <mxPoint x="10" y="340" as="targetPoint" />
          </mxGeometry>
        </mxCell>
        <mxCell id="boKA3PJuCKov7tFb9bbx-37" value="" style="endArrow=classic;html=1;rounded=0;entryX=1;entryY=0.5;entryDx=0;entryDy=0;exitX=0;exitY=0.75;exitDx=0;exitDy=0;" parent="1" source="boKA3PJuCKov7tFb9bbx-1" target="boKA3PJuCKov7tFb9bbx-35" edge="1">
          <mxGeometry width="50" height="50" relative="1" as="geometry">
            <mxPoint x="130" y="390" as="sourcePoint" />
            <mxPoint x="180" y="340" as="targetPoint" />
          </mxGeometry>
        </mxCell>
        <mxCell id="boKA3PJuCKov7tFb9bbx-38" value="can_frame" style="edgeLabel;html=1;align=center;verticalAlign=middle;resizable=0;points=[];" parent="boKA3PJuCKov7tFb9bbx-37" vertex="1" connectable="0">
          <mxGeometry x="-0.0333" y="2" relative="1" as="geometry">
            <mxPoint as="offset" />
          </mxGeometry>
        </mxCell>
        <mxCell id="boKA3PJuCKov7tFb9bbx-40" value="Missed&amp;nbsp;&lt;br&gt;Frames" style="rounded=0;whiteSpace=wrap;html=1;fillColor=#f5f5f5;fontColor=#333333;strokeColor=#666666;" parent="1" vertex="1">
          <mxGeometry x="200" y="360" width="160" height="80" as="geometry" />
        </mxCell>
        <mxCell id="boKA3PJuCKov7tFb9bbx-41" value="" style="endArrow=classic;html=1;rounded=0;exitX=0.5;exitY=1;exitDx=0;exitDy=0;entryX=1;entryY=0.5;entryDx=0;entryDy=0;" parent="1" source="boKA3PJuCKov7tFb9bbx-17" target="boKA3PJuCKov7tFb9bbx-40" edge="1">
          <mxGeometry width="50" height="50" relative="1" as="geometry">
            <mxPoint x="440" y="425" as="sourcePoint" />
            <mxPoint x="490" y="375" as="targetPoint" />
            <Array as="points">
              <mxPoint x="500" y="400" />
            </Array>
          </mxGeometry>
        </mxCell>
        <mxCell id="boKA3PJuCKov7tFb9bbx-42" value="" style="endArrow=classic;html=1;rounded=0;exitX=0;exitY=0.5;exitDx=0;exitDy=0;entryX=0.5;entryY=1;entryDx=0;entryDy=0;" parent="1" source="boKA3PJuCKov7tFb9bbx-40" target="boKA3PJuCKov7tFb9bbx-35" edge="1">
          <mxGeometry width="50" height="50" relative="1" as="geometry">
            <mxPoint x="35" y="425" as="sourcePoint" />
            <mxPoint x="85" y="375" as="targetPoint" />
            <Array as="points">
              <mxPoint x="-40" y="400" />
            </Array>
          </mxGeometry>
        </mxCell>
        <mxCell id="boKA3PJuCKov7tFb9bbx-43" value="missed_frames" style="edgeLabel;html=1;align=center;verticalAlign=middle;resizable=0;points=[];" parent="boKA3PJuCKov7tFb9bbx-42" vertex="1" connectable="0">
          <mxGeometry x="-0.3339" y="-1" relative="1" as="geometry">
            <mxPoint as="offset" />
          </mxGeometry>
        </mxCell>
        <mxCell id="boKA3PJuCKov7tFb9bbx-44" value="" style="rounded=0;whiteSpace=wrap;html=1;fillColor=#f8cecc;strokeColor=#b85450;" parent="1" vertex="1">
          <mxGeometry x="-320" y="40" width="40" height="440" as="geometry" />
        </mxCell>
        <mxCell id="boKA3PJuCKov7tFb9bbx-46" value="" style="endArrow=classic;startArrow=classic;html=1;rounded=0;exitX=1.011;exitY=0.547;exitDx=0;exitDy=0;exitPerimeter=0;" parent="1" source="boKA3PJuCKov7tFb9bbx-44" edge="1">
          <mxGeometry width="50" height="50" relative="1" as="geometry">
            <mxPoint x="-260" y="230" as="sourcePoint" />
            <mxPoint x="-240" y="281" as="targetPoint" />
          </mxGeometry>
        </mxCell>
        <mxCell id="HS4xZbFG0zjPDAdvJVUp-1" value="" style="endArrow=classic;html=1;rounded=0;exitX=0.5;exitY=1;exitDx=0;exitDy=0;entryX=-0.005;entryY=0.955;entryDx=0;entryDy=0;entryPerimeter=0;" edge="1" parent="1" source="boKA3PJuCKov7tFb9bbx-29" target="boKA3PJuCKov7tFb9bbx-22">
          <mxGeometry width="50" height="50" relative="1" as="geometry">
            <mxPoint x="-40" y="490" as="sourcePoint" />
            <mxPoint x="10" y="440" as="targetPoint" />
            <Array as="points">
              <mxPoint x="-180" y="460" />
            </Array>
          </mxGeometry>
        </mxCell>
        <mxCell id="HS4xZbFG0zjPDAdvJVUp-2" value="baud_config" style="edgeLabel;html=1;align=center;verticalAlign=middle;resizable=0;points=[];" vertex="1" connectable="0" parent="HS4xZbFG0zjPDAdvJVUp-1">
          <mxGeometry x="-0.1748" relative="1" as="geometry">
            <mxPoint as="offset" />
          </mxGeometry>
        </mxCell>
      </root>
    </mxGraphModel>
  </diagram>
</mxfile>
